<svg width="37" height="37" viewBox="0 0 37 37" fill="none" xmlns="http://www.w3.org/2000/svg">
<g clip-path="url(#clip0_292_54)">
<path d="M23.8419 2.99512L19.7933 5.44977L19.2985 31.0322L26.4735 33.059L32.614 31.7304L34.7507 29.1181L33.3562 2.99512H23.8419Z" fill="white"/>
<path d="M26.4736 10.4492C31.0325 10.4492 34.7283 8.61418 34.7283 6.35058C34.7283 4.08699 31.0325 2.25198 26.4736 2.25198C21.9146 2.25198 18.2189 4.08699 18.2189 6.35058C18.2189 8.61418 21.9146 10.4492 26.4736 10.4492Z" stroke="black" stroke-width="4" stroke-linecap="round" stroke-linejoin="round"/>
<path d="M34.7508 14.255C34.7508 16.507 31.0395 18.3536 26.4736 18.3536C21.9076 18.3536 18.2189 16.507 18.2189 14.255" stroke="black" stroke-width="4" stroke-linecap="round" stroke-linejoin="round"/>
<path d="M18.2189 6.35059V14.0524" stroke="black" stroke-width="4" stroke-linecap="round" stroke-linejoin="round"/>
<path d="M34.7507 14.0524V6.35059" stroke="black" stroke-width="4" stroke-linecap="round" stroke-linejoin="round"/>
<path d="M34.7508 22.3396C34.7508 24.5916 31.0395 26.4607 26.4736 26.4607C21.9076 26.4607 18.2189 24.6141 18.2189 22.3396" stroke="black" stroke-width="4" stroke-linecap="round" stroke-linejoin="round"/>
<path d="M18.2189 14.4577V22.1369" stroke="black" stroke-width="4" stroke-linecap="round" stroke-linejoin="round"/>
<path d="M34.7507 22.1369V14.4577" stroke="black" stroke-width="4" stroke-linecap="round" stroke-linejoin="round"/>
<path d="M34.7508 30.0414C34.7508 32.2934 31.0395 34.14 26.4736 34.14C21.9076 34.14 18.2189 32.3159 18.2189 30.0414" stroke="black" stroke-width="4" stroke-linecap="round" stroke-linejoin="round"/>
<path d="M18.2189 22.1369V29.8387" stroke="black" stroke-width="4" stroke-linecap="round" stroke-linejoin="round"/>
<path d="M34.7507 29.8387V22.1369" stroke="black" stroke-width="4" stroke-linecap="round" stroke-linejoin="round"/>
<path d="M7.87232 11.2824L3.82369 13.2191L3.32886 33.1716L10.5039 34.748L16.6444 33.7346L18.7811 31.6853L17.3866 11.2824H7.87232Z" fill="white"/>
<path d="M10.504 18.759C15.0629 18.759 18.7587 16.924 18.7587 14.6604C18.7587 12.3968 15.0629 10.5618 10.504 10.5618C5.94503 10.5618 2.24927 12.3968 2.24927 14.6604C2.24927 16.924 5.94503 18.759 10.504 18.759Z" stroke="black" stroke-width="4" stroke-linecap="round" stroke-linejoin="round"/>
<path d="M18.7812 22.5198C18.7812 24.7718 15.0699 26.6184 10.504 26.6184C5.93802 26.6184 2.24927 24.7718 2.24927 22.5198" stroke="black" stroke-width="4" stroke-linecap="round" stroke-linejoin="round"/>
<path d="M2.24927 14.6604V22.3396" stroke="black" stroke-width="4" stroke-linecap="round" stroke-linejoin="round"/>
<path d="M18.7811 22.3396V14.6604" stroke="black" stroke-width="4" stroke-linecap="round" stroke-linejoin="round"/>
<path d="M18.7812 30.6494C18.7812 32.9014 15.0699 34.748 10.504 34.748C5.93802 34.748 2.24927 32.9239 2.24927 30.6494" stroke="black" stroke-width="4" stroke-linecap="round" stroke-linejoin="round"/>
<path d="M2.24927 22.7675V30.4467" stroke="black" stroke-width="4" stroke-linecap="round" stroke-linejoin="round"/>
<path d="M18.7811 30.4467V22.7675" stroke="black" stroke-width="4" stroke-linecap="round" stroke-linejoin="round"/>
</g>
<defs>
<clipPath id="clip0_292_54">
<rect width="37" height="37" fill="white"/>
</clipPath>
</defs>
</svg>
