<svg width="37" height="37" viewBox="0 0 37 37" fill="none" xmlns="http://www.w3.org/2000/svg">
<g clip-path="url(#clip0_292_30)">
<path d="M11.8279 2.96002H6.31875C4.46374 2.96002 2.95996 4.51845 2.95996 6.44086V12.1502C2.95996 14.0726 4.46374 15.631 6.31875 15.631H11.8279C13.6829 15.631 15.1867 14.0726 15.1867 12.1502V6.44086C15.1867 4.51845 13.6829 2.96002 11.8279 2.96002Z" stroke="black" stroke-width="4" stroke-miterlimit="10"/>
<path d="M31.8641 2.96002H26.355C24.5 2.96002 22.9962 4.51845 22.9962 6.44086V12.1502C22.9962 14.0726 24.5 15.631 26.355 15.631H31.8641C33.7191 15.631 35.2229 14.0726 35.2229 12.1502V6.44086C35.2229 4.51845 33.7191 2.96002 31.8641 2.96002Z" stroke="black" stroke-width="4" stroke-miterlimit="10"/>
<path d="M11.8279 22.4873H6.31875C4.46374 22.4873 2.95996 24.0457 2.95996 25.9681V31.6774C2.95996 33.5999 4.46374 35.1583 6.31875 35.1583H11.8279C13.6829 35.1583 15.1867 33.5999 15.1867 31.6774V25.9681C15.1867 24.0457 13.6829 22.4873 11.8279 22.4873Z" stroke="black" stroke-width="4" stroke-miterlimit="10"/>
<path d="M31.8641 22.4873H26.355C24.5 22.4873 22.9962 24.0457 22.9962 25.9681V31.6774C22.9962 33.5999 24.5 35.1583 26.355 35.1583H31.8641C33.7191 35.1583 35.2229 33.5999 35.2229 31.6774V25.9681C35.2229 24.0457 33.7191 22.4873 31.8641 22.4873Z" stroke="black" stroke-width="4" stroke-miterlimit="10"/>
</g>
<defs>
<clipPath id="clip0_292_30">
<rect width="37" height="37" fill="white"/>
</clipPath>
</defs>
</svg>
