<svg width="29" height="37" viewBox="0 0 29 37" fill="none" xmlns="http://www.w3.org/2000/svg">
<path d="M13.875 14.0577C17.2047 14.0577 19.9039 11.3585 19.9039 8.02885C19.9039 4.69921 17.2047 2 13.875 2C10.5454 2 7.84619 4.69921 7.84619 8.02885C7.84619 11.3585 10.5454 14.0577 13.875 14.0577Z" stroke="#231F20" stroke-width="4" stroke-linecap="round" stroke-linejoin="round"/>
<path d="M14.0577 19.4167C15.6411 19.4167 17.2091 19.7125 18.672 20.2871C20.1349 20.8618 21.4641 21.7042 22.5838 22.766C23.7034 23.8279 24.5916 25.0886 25.1975 26.476C25.8035 27.8634 26.1154 29.3504 26.1154 30.8522V31.4928C26.1154 32.1983 25.8199 32.8748 25.2939 33.3737C24.768 33.8725 24.0546 34.1527 23.3108 34.1527H4.88648C4.51134 34.1631 4.13782 34.102 3.78804 33.973C3.43827 33.844 3.11935 33.6497 2.85018 33.4017C2.58102 33.1536 2.36708 32.8569 2.22104 32.529C2.07501 32.2011 1.99984 31.8488 2 31.4928V30.8522C2 27.8193 3.27036 24.9106 5.53162 22.766C7.79287 20.6215 10.8598 19.4167 14.0577 19.4167Z" stroke="#231F20" stroke-width="4" stroke-linecap="round" stroke-linejoin="round"/>
</svg>
