<svg width="37" height="35" viewBox="0 0 37 35" fill="none" xmlns="http://www.w3.org/2000/svg">
<g clip-path="url(#clip0_292_41)">
<path d="M16.8437 31.1801C16.7975 31.7143 16.53 32.2103 16.0985 32.562C15.667 32.9137 15.1058 33.0931 14.535 33.0618H4.33638C3.76343 33.0933 3.1999 32.9145 2.7652 32.5633C2.33049 32.212 2.05876 31.7159 2.00757 31.1801V18.8172C2.05876 18.2814 2.33049 17.7853 2.7652 17.4341C3.1999 17.0828 3.76343 16.904 4.33638 16.9355H14.535C15.1058 16.9042 15.667 17.0836 16.0985 17.4353C16.53 17.787 16.7975 18.283 16.8437 18.8172" stroke="black" stroke-width="4" stroke-linecap="round" stroke-linejoin="round"/>
<path d="M9.43569 11.1774C12.1743 11.1774 14.3945 9.0965 14.3945 6.52956C14.3945 3.96263 12.1743 1.88171 9.43569 1.88171C6.69704 1.88171 4.47693 3.96263 4.47693 6.52956C4.47693 9.0965 6.69704 11.1774 9.43569 11.1774Z" stroke="black" stroke-width="4" stroke-linecap="round" stroke-linejoin="round"/>
<path d="M13.7119 24.9516H34.4303" stroke="black" stroke-width="4" stroke-linecap="round" stroke-linejoin="round"/>
<path d="M28.6083 18.5161L34.9924 24.4812L29.2708 31.914" stroke="black" stroke-width="4" stroke-linecap="round" stroke-linejoin="round"/>
</g>
<defs>
<clipPath id="clip0_292_41">
<rect width="37" height="35" fill="white"/>
</clipPath>
</defs>
</svg>
