<svg width="37" height="36" viewBox="0 0 37 36" fill="none" xmlns="http://www.w3.org/2000/svg">
<g clip-path="url(#clip0_292_80)">
<path d="M18.5 14.2559C21.9988 14.2559 24.8351 11.489 24.8351 8.07582C24.8351 4.66264 21.9988 1.89572 18.5 1.89572C15.0012 1.89572 12.1649 4.66264 12.1649 8.07582C12.1649 11.489 15.0012 14.2559 18.5 14.2559Z" stroke="black" stroke-width="4" stroke-linecap="round" stroke-linejoin="round"/>
<path d="M8.27832 34.1043C11.7771 34.1043 14.6134 31.3373 14.6134 27.9242C14.6134 24.511 11.7771 21.7441 8.27832 21.7441C4.77955 21.7441 1.94324 24.511 1.94324 27.9242C1.94324 31.3373 4.77955 34.1043 8.27832 34.1043Z" stroke="black" stroke-width="4" stroke-linecap="round" stroke-linejoin="round"/>
<path d="M28.7217 34.1043C32.2204 34.1043 35.0568 31.3373 35.0568 27.9242C35.0568 24.511 32.2204 21.7441 28.7217 21.7441C25.2229 21.7441 22.3866 24.511 22.3866 27.9242C22.3866 31.3373 25.2229 34.1043 28.7217 34.1043Z" stroke="black" stroke-width="4" stroke-linecap="round" stroke-linejoin="round"/>
<path d="M12.1649 8.07584C10.5466 8.07584 8.99452 8.70298 7.85019 9.81931C6.70586 10.9356 6.06299 12.4497 6.06299 14.0284V21.763" stroke="black" stroke-width="4" stroke-linecap="round" stroke-linejoin="round"/>
<path d="M24.8157 8.07584C25.6186 8.07334 26.4142 8.22547 27.1567 8.5235C27.8993 8.82153 28.5743 9.2596 29.1429 9.8126C29.7116 10.3656 30.1628 11.0226 30.4707 11.7461C30.7785 12.4695 30.937 13.2451 30.937 14.0284V22.1422" stroke="black" stroke-width="4" stroke-linecap="round" stroke-linejoin="round"/>
</g>
<defs>
<clipPath id="clip0_292_80">
<rect width="37" height="36" fill="white"/>
</clipPath>
</defs>
</svg>
