<svg width="37" height="37" viewBox="0 0 37 37" fill="none" xmlns="http://www.w3.org/2000/svg">
<g clip-path="url(#clip0_292_46)">
<path d="M25.8302 34.9924C30.8976 34.9924 35.0054 30.8578 35.0054 25.7575C35.0054 20.6571 30.8976 16.5225 25.8302 16.5225C20.7629 16.5225 16.655 20.6571 16.655 25.7575C16.655 30.8578 20.7629 34.9924 25.8302 34.9924Z" stroke="black" stroke-width="4" stroke-linecap="round" stroke-linejoin="round"/>
<path d="M11.3293 31.8404H5.0862C4.21297 31.7785 3.39905 31.3731 2.82048 30.7119C2.24192 30.0507 1.94522 29.1868 1.99456 28.3071V5.54094C1.94522 4.66124 2.24192 3.79735 2.82048 3.13612C3.39905 2.47489 4.21297 2.06948 5.0862 2.00757H29.3606C30.2358 2.06435 31.0528 2.46827 31.6324 3.1307C32.212 3.79313 32.5069 4.65995 32.4522 5.54094V10.9815" stroke="black" stroke-width="4" stroke-linecap="round" stroke-linejoin="round"/>
<path d="M9.07553 20.618C8.81163 20.6169 8.55057 20.5631 8.30747 20.4597C8.06438 20.3563 7.84409 20.2054 7.65936 20.0157C7.47968 19.8268 7.3315 19.6098 7.22054 19.3733C7.12517 19.1305 7.07774 18.8714 7.08092 18.6104C7.07511 18.3427 7.12258 18.0764 7.22054 17.8274C7.3315 17.5909 7.47968 17.374 7.65936 17.185C7.93762 16.9031 8.29277 16.7106 8.6798 16.632C9.06684 16.5533 9.46835 16.5921 9.83348 16.7433C10.0759 16.8525 10.2984 17.0018 10.4917 17.185C10.6766 17.3726 10.8228 17.5951 10.9221 17.8397C11.0213 18.0843 11.0717 18.3462 11.0701 18.6104C11.0679 19.1371 10.8602 19.6418 10.4917 20.0157C10.307 20.2054 10.0867 20.3563 9.84358 20.4597C9.60049 20.5631 9.33943 20.6169 9.07553 20.618Z" fill="black"/>
<path d="M9.07552 12.3267C8.81302 12.3282 8.5528 12.2775 8.30978 12.1776C8.06676 12.0777 7.84573 11.9305 7.65935 11.7445C7.57357 11.6491 7.49364 11.5485 7.42 11.4433C7.34596 11.3272 7.27934 11.2065 7.22053 11.0819C7.17552 10.9582 7.14213 10.8305 7.1208 10.7005C7.10133 10.5741 7.10133 10.4455 7.1208 10.3191C7.12243 9.92441 7.23957 9.539 7.45761 9.21099C7.67564 8.88298 7.98489 8.62693 8.3467 8.47484C8.70851 8.32275 9.10683 8.28136 9.49188 8.35585C9.87693 8.43034 10.2316 8.61741 10.5116 8.89367C10.7001 9.0796 10.85 9.30133 10.9528 9.546C11.0555 9.79068 11.1089 10.0534 11.11 10.3191C11.1198 10.446 11.1198 10.5735 11.11 10.7005C11.0915 10.8335 11.0511 10.9624 10.9903 11.0819C10.9467 11.2099 10.8863 11.3314 10.8108 11.4433L10.5515 11.7445C10.3581 11.9379 10.1273 12.0894 9.87346 12.1895C9.61959 12.2896 9.34802 12.3363 9.07552 12.3267Z" fill="black"/>
<path d="M17.5127 12.3266H17.1337C17.0016 12.308 16.8735 12.2673 16.7548 12.2062C16.6287 12.1685 16.508 12.1145 16.3957 12.0456C16.2912 11.9714 16.1913 11.891 16.0965 11.8046C16.0427 11.6872 15.9961 11.5665 15.9569 11.4433C15.8814 11.3314 15.8211 11.2098 15.7774 11.0819C15.7167 10.9624 15.6762 10.8334 15.6577 10.7005C15.6479 10.5735 15.6479 10.446 15.6577 10.319C15.6562 10.0548 15.7065 9.79289 15.8058 9.54829C15.905 9.30369 16.0513 9.08122 16.2362 8.89363L16.5353 8.65272C16.6465 8.57674 16.7673 8.51597 16.8944 8.47203C17.0132 8.4109 17.1412 8.37019 17.2734 8.35158C17.5938 8.28699 17.9251 8.30265 18.2381 8.39717C18.5511 8.49169 18.8363 8.66217 19.0685 8.89363C19.2534 9.08122 19.3996 9.30369 19.4989 9.54829C19.5981 9.79289 19.6485 10.0548 19.6469 10.319C19.6567 10.446 19.6567 10.5735 19.6469 10.7005C19.6284 10.8334 19.588 10.9624 19.5273 11.0819C19.4836 11.2098 19.4232 11.3314 19.3477 11.4433L19.1084 11.7444C18.9013 11.9536 18.651 12.1142 18.3751 12.2149C18.0993 12.3155 17.8049 12.3537 17.5127 12.3266Z" fill="black"/>
<path d="M25.4113 12.3267C25.1388 12.3363 24.8672 12.2896 24.6134 12.1895C24.3595 12.0894 24.1287 11.9379 23.9353 11.7445L23.7358 11.4433L23.5563 11.0819L23.4366 10.7005C23.4269 10.5735 23.4269 10.446 23.4366 10.3191C23.4377 10.0534 23.4912 9.79068 23.5939 9.54601C23.6966 9.30133 23.8466 9.0796 24.035 8.89367C24.4087 8.51975 24.9143 8.30988 25.4412 8.30988C25.9682 8.30988 26.4737 8.51975 26.8474 8.89367C27.0323 9.08126 27.1785 9.30373 27.2778 9.54833C27.3771 9.79293 27.4274 10.0548 27.4259 10.3191C27.4453 10.4455 27.4453 10.5741 27.4259 10.7005C27.4045 10.8305 27.3712 10.9582 27.3261 11.0819L27.1466 11.4433L26.8873 11.7445C26.6939 11.9379 26.4631 12.0894 26.2093 12.1895C25.9554 12.2896 25.6838 12.3363 25.4113 12.3267Z" fill="black"/>
<path d="M22.7385 26.0184L25.2717 28.1465L28.9218 23.3684" stroke="black" stroke-width="4" stroke-linecap="round" stroke-linejoin="round"/>
</g>
<defs>
<clipPath id="clip0_292_46">
<rect width="37" height="37" fill="white"/>
</clipPath>
</defs>
</svg>
