<svg width="37" height="37" viewBox="0 0 37 37" fill="none" xmlns="http://www.w3.org/2000/svg">
<g clip-path="url(#clip0_292_99)">
<path d="M21.1855 7.19666C21.1856 6.50661 21.0487 5.82344 20.7828 5.18691C20.5169 4.55039 20.1274 3.97322 19.6368 3.48901C19.1462 3.0048 18.5644 2.62321 17.9253 2.36647C17.2862 2.10973 16.6025 1.98296 15.914 1.99353H7.18119C5.80421 1.99353 4.48362 2.54172 3.50994 3.51749C2.53626 4.49327 1.98926 5.8167 1.98926 7.19666V25.6767C1.98925 26.3591 2.12369 27.0347 2.38485 27.6649C2.64601 28.295 3.02876 28.8673 3.51114 29.3489C3.99352 29.8304 4.56603 30.2118 5.19583 30.4711C5.82563 30.7304 6.50032 30.8625 7.18119 30.8599H10.185" stroke="#231F20" stroke-width="4" stroke-linecap="round" stroke-linejoin="round"/>
<path d="M8.87207 8.49266H14.442" stroke="#231F20" stroke-width="4" stroke-linecap="round" stroke-linejoin="round"/>
<path d="M8.88 16.28H10.36" stroke="#231F20" stroke-width="4" stroke-linecap="round" stroke-linejoin="round"/>
<path d="M8.88 23.68H10.36" stroke="#231F20" stroke-width="4" stroke-linecap="round" stroke-linejoin="round"/>
<path d="M24.965 13.7753C24.965 13.7753 22.9758 16.9251 14.9193 16.9251C14.9193 16.9251 14.9193 35.0065 24.965 35.0065C35.0107 35.0065 35.0107 16.9251 35.0107 16.9251C26.994 16.9251 24.965 13.7753 24.965 13.7753Z" stroke="#231F20" stroke-width="4" stroke-linecap="round" stroke-linejoin="round"/>
<path d="M21.8817 24.6401L24.4081 26.7532L28.0484 22.0086" stroke="#231F20" stroke-width="4" stroke-linecap="round" stroke-linejoin="round"/>
</g>
<defs>
<clipPath id="clip0_292_99">
<rect width="37" height="37" fill="white"/>
</clipPath>
</defs>
</svg>
